<svg xmlns="http://www.w3.org/2000/svg" width="204.08" height="240.82" viewBox="0 0 204.08 240.82">
  <title>brand-fonterrific</title>
  <g id="Ebene_2" data-name="Ebene 2">
    <g id="Ebene_1-2" data-name="Ebene 1">
      <path d="M196.36,213.28c-12.77,0-36.28-4.37-36.28-39V95.72h44V71.52H60.79V60.45C60.79,29.89,82,26.87,92.7,26.87a59.36,59.36,0,0,1,12.09,1V1A109.61,109.61,0,0,0,89.34,0C69.19,0,28.21,6.71,28.21,61.13v10.4H0V95.72H28.39v81.62c0,56.77,43.33,63.48,64.83,63.48a91.82,91.82,0,0,0,11.75-.67v-27.2s-3,.34-7.72.34c-12.77,0-36.28-4.37-36.28-39V95.72H127.5v81.62c0,56.77,43.33,63.48,64.83,63.48a91.82,91.82,0,0,0,11.75-.67v-27.2S201.06,213.28,196.36,213.28Z"/>
    </g>
  </g>
</svg>
