<svg xmlns="http://www.w3.org/2000/svg" width="177.23" height="256" viewBox="0 0 177.23 256">
  <title>ghost</title>
  <g id="Ebene_2" data-name="Ebene 2">
    <g id="Ebene_1-2" data-name="Ebene 1">
      <path d="M88.62,0A88.62,88.62,0,0,0,0,88.62V256c22.16,0,22.16-29.54,44.31-29.54S66.47,256,88.62,256s22.15-29.54,44.3-29.54S155.08,256,177.23,256V88.62A88.62,88.62,0,0,0,88.62,0Zm-32,96a16,16,0,1,1,16-16A16,16,0,0,1,56.62,96Zm64,0a16,16,0,1,1,16-16A16,16,0,0,1,120.62,96Z"/>
    </g>
  </g>
</svg>
